<svg width="46" height="56" viewBox="0 0 46 56" fill="none" xmlns="http://www.w3.org/2000/svg">
<g filter="url(#filter0_ddd_1077_18278)">
<path d="M6 5.77551C6 4.24264 7.24264 3 8.77551 3L25.5168 3C26.3402 3 27.1212 3.36566 27.6485 3.99815L39.3563 18.0404C39.7722 18.5393 40 19.1682 40 19.8178V44.2245C40 45.7574 38.7574 47 37.2245 47H8.77551C7.24264 47 6 45.7574 6 44.2245V5.77551Z" fill="url(#paint0_linear_1077_18278)"/>
<path d="M6.46259 5.77551C6.46259 4.49812 7.49812 3.46259 8.77551 3.46259H25.5168C26.203 3.46259 26.8538 3.76731 27.2932 4.29437L39.001 18.3366C39.3476 18.7524 39.5374 19.2765 39.5374 19.8178V44.2245C39.5374 45.5019 38.5019 46.5374 37.2245 46.5374H8.77551C7.49812 46.5374 6.46259 45.5019 6.46259 44.2245V5.77551Z" stroke="url(#paint1_linear_1077_18278)" stroke-width="0.92517"/>
</g>
<g filter="url(#filter1_ddd_1077_18278)">
<path d="M33.0608 10.4412L26.1221 3V16.037C26.1221 17.5699 27.3647 18.8125 28.8976 18.8125H39.9996L33.0608 10.4412Z" fill="url(#paint2_linear_1077_18278)"/>
<path d="M39.5075 18.5812H28.8976C27.4924 18.5812 26.3534 17.4421 26.3534 16.037V3.58718L32.8871 10.594L39.5075 18.5812Z" stroke="url(#paint3_linear_1077_18278)" stroke-width="0.462585"/>
</g>
<rect x="12.9385" y="31.1875" width="19.4286" height="2.75" rx="1.375" fill="#C9C9CC"/>
<rect x="17.1016" y="25.6875" width="11.102" height="2.75" rx="1.375" fill="#1751D0"/>
<defs>
<filter id="filter0_ddd_1077_18278" x="0.448979" y="0.22449" width="45.102" height="55.102" filterUnits="userSpaceOnUse" color-interpolation-filters="sRGB">
<feFlood flood-opacity="0" result="BackgroundImageFix"/>
<feColorMatrix in="SourceAlpha" type="matrix" values="0 0 0 0 0 0 0 0 0 0 0 0 0 0 0 0 0 0 127 0" result="hardAlpha"/>
<feOffset/>
<feComposite in2="hardAlpha" operator="out"/>
<feColorMatrix type="matrix" values="0 0 0 0 0 0 0 0 0 0 0 0 0 0 0 0 0 0 0.04 0"/>
<feBlend mode="normal" in2="BackgroundImageFix" result="effect1_dropShadow_1077_18278"/>
<feColorMatrix in="SourceAlpha" type="matrix" values="0 0 0 0 0 0 0 0 0 0 0 0 0 0 0 0 0 0 127 0" result="hardAlpha"/>
<feOffset dy="0.92517"/>
<feGaussianBlur stdDeviation="1.38776"/>
<feComposite in2="hardAlpha" operator="out"/>
<feColorMatrix type="matrix" values="0 0 0 0 0 0 0 0 0 0 0 0 0 0 0 0 0 0 0.07 0"/>
<feBlend mode="normal" in2="effect1_dropShadow_1077_18278" result="effect2_dropShadow_1077_18278"/>
<feColorMatrix in="SourceAlpha" type="matrix" values="0 0 0 0 0 0 0 0 0 0 0 0 0 0 0 0 0 0 127 0" result="hardAlpha"/>
<feOffset dy="2.77551"/>
<feGaussianBlur stdDeviation="2.77551"/>
<feComposite in2="hardAlpha" operator="out"/>
<feColorMatrix type="matrix" values="0 0 0 0 0 0 0 0 0 0 0 0 0 0 0 0 0 0 0.05 0"/>
<feBlend mode="normal" in2="effect2_dropShadow_1077_18278" result="effect3_dropShadow_1077_18278"/>
<feBlend mode="normal" in="SourceGraphic" in2="effect3_dropShadow_1077_18278" result="shape"/>
</filter>
<filter id="filter1_ddd_1077_18278" x="24.2717" y="2.30612" width="17.5781" height="20.2071" filterUnits="userSpaceOnUse" color-interpolation-filters="sRGB">
<feFlood flood-opacity="0" result="BackgroundImageFix"/>
<feColorMatrix in="SourceAlpha" type="matrix" values="0 0 0 0 0 0 0 0 0 0 0 0 0 0 0 0 0 0 127 0" result="hardAlpha"/>
<feOffset/>
<feComposite in2="hardAlpha" operator="out"/>
<feColorMatrix type="matrix" values="0 0 0 0 0 0 0 0 0 0 0 0 0 0 0 0 0 0 0.04 0"/>
<feBlend mode="normal" in2="BackgroundImageFix" result="effect1_dropShadow_1077_18278"/>
<feColorMatrix in="SourceAlpha" type="matrix" values="0 0 0 0 0 0 0 0 0 0 0 0 0 0 0 0 0 0 127 0" result="hardAlpha"/>
<feOffset dy="1.85034"/>
<feGaussianBlur stdDeviation="0.92517"/>
<feComposite in2="hardAlpha" operator="out"/>
<feColorMatrix type="matrix" values="0 0 0 0 0 0 0 0 0 0 0 0 0 0 0 0 0 0 0.13 0"/>
<feBlend mode="normal" in2="effect1_dropShadow_1077_18278" result="effect2_dropShadow_1077_18278"/>
<feColorMatrix in="SourceAlpha" type="matrix" values="0 0 0 0 0 0 0 0 0 0 0 0 0 0 0 0 0 0 127 0" result="hardAlpha"/>
<feOffset dy="0.231293"/>
<feGaussianBlur stdDeviation="0.462585"/>
<feComposite in2="hardAlpha" operator="out"/>
<feColorMatrix type="matrix" values="0 0 0 0 0 0 0 0 0 0 0 0 0 0 0 0 0 0 0.13 0"/>
<feBlend mode="normal" in2="effect2_dropShadow_1077_18278" result="effect3_dropShadow_1077_18278"/>
<feBlend mode="normal" in="SourceGraphic" in2="effect3_dropShadow_1077_18278" result="shape"/>
</filter>
<linearGradient id="paint0_linear_1077_18278" x1="23" y1="3" x2="23" y2="47" gradientUnits="userSpaceOnUse">
<stop stop-color="white"/>
<stop offset="1" stop-color="#EFEFEF"/>
</linearGradient>
<linearGradient id="paint1_linear_1077_18278" x1="22.6531" y1="47" x2="22.6531" y2="5.0625" gradientUnits="userSpaceOnUse">
<stop stop-color="white"/>
<stop offset="1" stop-color="white" stop-opacity="0"/>
</linearGradient>
<linearGradient id="paint2_linear_1077_18278" x1="25.1969" y1="18.8125" x2="32.137" y2="19.7329" gradientUnits="userSpaceOnUse">
<stop stop-color="#FAFAFA"/>
<stop offset="1" stop-color="#EDEDED"/>
</linearGradient>
<linearGradient id="paint3_linear_1077_18278" x1="34.4486" y1="28.114" x2="33.5135" y2="11.3719" gradientUnits="userSpaceOnUse">
<stop stop-color="white"/>
<stop offset="1" stop-color="white" stop-opacity="0"/>
</linearGradient>
</defs>
</svg>
