<svg width="122" height="50" viewBox="0 0 122 50" fill="none" xmlns="http://www.w3.org/2000/svg">
<g clip-path="url(#clip0_978_10400)">
<path d="M8.49766 26.4221C9.34546 28.1353 8.91515 29.6223 7.20673 30.8829C8.09729 31.3126 9.10223 31.4423 10.0721 31.2528C10.4974 31.1857 10.9043 31.0311 11.2673 30.7987C11.6302 30.5664 11.9414 30.2612 12.1812 29.9023C12.9708 28.72 12.6885 27.3494 11.3343 25.7905C10.9395 25.3516 10.5057 24.9498 10.0381 24.59C9.60466 24.2481 9.1511 23.9327 8.6799 23.6454C8.27072 23.4015 7.76457 23.1099 7.16144 22.7705C6.55832 22.4311 6.08045 22.1464 5.72783 21.9163C1.526 19.1129 -0.364161 15.5919 0.0573347 11.3532C0.557342 6.7369 3.1131 3.43342 7.72463 1.44278C10.4789 0.279615 13.0028 0.771631 15.2962 2.91883C17.47 4.9654 18.1661 7.28618 17.3844 9.88116C16.8066 11.8268 15.5173 13.0149 13.5166 13.4454C12.8624 13.6152 12.1773 13.6254 11.5185 13.4753C10.911 13.3434 10.3442 13.0663 9.86624 12.6676C9.42449 12.3053 9.10243 11.8172 8.94246 11.2676C8.81205 10.9201 8.76813 10.5459 8.81451 10.1775C8.86088 9.80911 8.99615 9.45765 9.20857 9.15363C9.63826 8.54089 10.4431 7.97967 11.6231 7.46995C11.1072 6.62173 10.316 6.46584 9.24958 7.00228C7.82777 7.71874 6.8257 8.68716 6.24336 9.90753C5.66459 11.0667 5.56782 12.4089 5.97431 13.6396C6.37769 14.9074 7.22845 15.988 8.52656 16.8813C8.91874 17.146 9.43803 17.483 10.0844 17.8922C10.7307 18.3028 11.2877 18.6459 11.7553 18.9216C12.285 19.2403 12.7968 19.588 13.2884 19.9632C13.842 20.381 14.3399 20.7942 14.7819 21.2029C16.6694 22.9386 17.8164 24.8957 18.2228 27.0743C18.4343 28.0992 18.4404 29.156 18.2408 30.1832C18.0412 31.2105 17.6399 32.1875 17.0603 33.0576C16.0411 34.5946 14.5256 35.7367 12.5139 36.4837C10.5017 37.2309 8.58797 37.3844 6.77277 36.9441C5.17034 36.5668 3.73158 35.6816 2.66959 34.4195C1.59006 33.1323 0.932036 31.5425 0.785113 29.8665C0.668911 29.0397 0.730592 28.1974 0.966008 27.3966C1.57947 25.4478 2.7976 24.4055 4.62041 24.2695C6.44287 24.1336 7.73529 24.8512 8.49766 26.4221Z" fill="#207DF7"/>
<path d="M35.1736 30.0025C35.2918 30.3913 35.4487 30.9305 35.6441 31.6202C35.8391 32.31 35.9738 32.7985 36.0482 33.0858C36.2552 33.6953 36.2345 34.3595 35.9898 34.9548C35.8702 35.2106 35.696 35.4369 35.4795 35.6176C35.2631 35.7983 35.0096 35.929 34.7372 36.0004C34.4722 36.0893 34.1905 36.1171 33.9133 36.0818C33.6361 36.0464 33.3703 35.9489 33.1357 35.7964C32.6064 35.4417 32.2325 34.8969 32.0911 34.2741C31.9198 33.7301 31.4047 31.7586 30.5461 28.3595C30.2922 27.3122 30.042 26.618 29.7956 26.277C29.6793 26.268 29.5631 26.2945 29.4621 26.3529C29.2979 26.5288 29.1728 26.7377 29.0949 26.9657C27.6519 29.1846 26.6902 31.6835 26.2725 34.2999C26.0329 35.8108 25.3319 36.581 24.1696 36.6105C23.9021 36.6422 23.6309 36.6126 23.3765 36.5238C23.1221 36.4351 22.891 36.2896 22.7007 36.0983C22.3122 35.6187 22.0384 35.0562 21.9003 34.4538C21.4219 32.8718 20.986 31.0914 20.5927 29.1128C20.1988 27.1348 19.8817 25.3347 19.6414 23.7127C19.4009 22.0911 19.1015 20.2747 18.7433 18.2633C18.634 17.7643 18.472 17.0283 18.2573 16.0553C18.0426 15.0834 17.9222 14.5177 17.8962 14.3579C17.7351 13.7331 17.7991 13.0712 18.0768 12.4891C18.2116 12.2371 18.4053 12.0218 18.6414 11.8616C18.8774 11.7013 19.1486 11.601 19.4318 11.5692C19.6929 11.5084 19.964 11.5056 20.2263 11.5609C20.4886 11.6162 20.7357 11.7284 20.9503 11.8896C21.4388 12.2635 21.7741 12.8038 21.8931 13.4087C22.4623 15.7117 23.1862 19.61 24.0649 25.1036L24.3206 26.6553C24.4747 26.4394 24.6599 26.1633 24.8761 25.8271C25.0919 25.4921 25.264 25.2184 25.3923 25.0059C25.5205 24.7946 25.6782 24.5573 25.8653 24.2939C26.0526 24.0318 26.2257 23.8056 26.3846 23.6152C27.5752 22.11 28.8562 21.441 30.2276 21.6081C31.5988 21.776 32.7105 22.7153 33.5626 24.426C33.8464 24.9705 34.0769 25.5413 34.2508 26.1305C34.4326 26.7405 34.61 27.4466 34.7829 28.2488C34.956 29.0513 35.0862 29.6359 35.1736 30.0025Z" fill="#207DF7"/>
<path d="M82.7571 23.3197C82.7643 23.7487 82.7669 24.3416 82.765 25.0984C82.7627 25.8552 82.7576 26.3901 82.7497 26.7032C82.7829 27.382 82.5691 28.0498 82.1482 28.5822C81.9526 28.8068 81.7102 28.9855 81.4382 29.1055C81.1662 29.2255 80.8712 29.2841 80.5741 29.2769C80.2794 29.2895 79.9856 29.2354 79.7146 29.1185C79.4436 29.0017 79.2023 28.8251 79.0086 28.6018C78.5744 28.0872 78.3533 27.4252 78.3905 26.752C78.3745 26.1501 78.4241 23.9995 78.5392 20.3002C78.5855 19.1634 78.5332 18.3861 78.3821 17.9682C78.2668 17.925 78.1412 17.9179 78.0217 17.9477C77.8042 18.0782 77.6166 18.2535 77.4715 18.462C75.3636 20.2914 73.663 22.5455 72.48 25.0778C71.7986 26.5405 70.864 27.117 69.6762 26.8073C69.3956 26.7612 69.1291 26.6519 68.8968 26.4875C68.6644 26.3232 68.4722 26.108 68.3347 25.8583C68.0797 25.2582 67.9651 24.6075 67.9998 23.956C67.9735 22.2112 68.048 20.2777 68.223 18.1555C68.3973 16.0336 68.5979 14.1147 68.8248 12.399C69.0513 10.6837 69.2747 8.75333 69.4949 6.60797C69.5288 6.06978 69.578 5.27576 69.6425 4.22591C69.7066 3.17719 69.7487 2.56803 69.7687 2.39844C69.7866 1.71745 70.0435 1.06467 70.4942 0.555284C70.704 0.339064 70.9631 0.177214 71.249 0.08364C71.535 -0.00993415 71.8393 -0.0324373 72.1358 0.0180663C72.4183 0.0327051 72.6942 0.109085 72.9443 0.241867C73.1943 0.37465 73.4125 0.56063 73.5834 0.786815C73.9705 1.30895 74.1539 1.95513 74.0991 2.6036C74.0084 5.10631 73.6116 9.27271 72.9089 15.1028L72.7181 16.7517C72.9371 16.5776 73.205 16.3516 73.5219 16.0737C73.838 15.797 74.092 15.5696 74.2839 15.3915C74.4752 15.2146 74.704 15.0199 74.9703 14.8074C75.2363 14.5963 75.4775 14.4174 75.694 14.2707C77.3386 13.0917 78.8323 12.7874 80.175 13.3578C81.5175 13.9288 82.3727 15.2066 82.7408 17.1913C82.8707 17.8266 82.9389 18.4731 82.9444 19.1217C82.9519 19.7936 82.9269 20.5618 82.8696 21.4262C82.8123 22.2911 82.7749 22.9223 82.7571 23.3197Z" fill="#207DF7"/>
<path d="M92.2365 25.3841C91.0487 25.6186 89.8296 25.6474 88.6322 25.4691C89.0276 26.5191 89.805 27.0299 90.9641 27.0014C91.1617 27.0014 91.4733 26.98 91.897 26.9374C92.3211 26.8947 92.6321 26.8734 92.8299 26.8737C94.045 26.9021 94.7517 27.4552 94.95 28.5333C95.0445 29.0605 94.9702 29.6043 94.7378 30.0866C94.6165 30.311 94.4472 30.5057 94.242 30.6565C94.0368 30.8074 93.8007 30.9106 93.5509 30.9588C90.5544 31.7814 88.1658 31.3984 86.3853 29.8099C85.2653 28.8348 84.4484 27.557 84.032 26.1288C83.5984 24.7463 83.5039 23.2791 83.7564 21.852C84.0275 20.4235 84.6222 19.0767 85.4945 17.9156C86.3739 16.7013 87.5801 15.7639 88.9716 15.2134C89.7049 14.9043 90.4938 14.7505 91.289 14.7614C92.0841 14.7723 92.8685 14.9479 93.593 15.277C94.3064 15.5619 94.945 16.0075 95.4596 16.5793C95.9742 17.1512 96.351 17.8341 96.561 18.5753C96.8141 19.2696 96.8728 20.0204 96.7307 20.7459C96.5998 21.4766 96.3264 22.1741 95.9262 22.7985C95.5261 23.4229 95.007 23.9618 94.3987 24.3843C93.7479 24.8525 93.014 25.1919 92.2365 25.3841ZM88.8444 20.8734C89.2759 21.0968 89.753 21.2168 90.2385 21.2241C90.724 21.2315 91.2045 21.1259 91.6426 20.9157C92.1513 20.6891 92.3775 20.3629 92.321 19.9371C92.2077 19.3698 91.8402 19.1286 91.2184 19.2134C90.201 19.2988 89.4096 19.8522 88.8444 20.8734Z" fill="#207DF7"/>
<path d="M113.509 14.318C114.151 14.7138 114.62 15.3397 114.821 16.0691C114.908 16.4068 114.921 16.7597 114.859 17.103C114.797 17.4464 114.661 17.7721 114.461 18.0574C114.296 18.3585 114.065 18.6173 113.784 18.8137C113.503 19.01 113.181 19.1387 112.842 19.1896C112.088 19.2586 111.336 19.0393 110.736 18.5756C110.445 18.3179 110.078 18.1627 109.691 18.1338C109.385 18.115 109.08 18.192 108.818 18.354C108.53 18.5506 108.263 18.7766 108.021 19.0284C105.98 21.1038 104.725 23.8286 104.471 26.7333C104.418 27.5558 104.282 28.3707 104.064 29.1651C103.767 30.27 103.023 30.841 101.831 30.8781C101.319 30.8858 100.816 30.7487 100.379 30.4823C99.9519 30.2083 99.6441 29.7821 99.5176 29.2894C98.2502 24.6289 97.4761 20.6099 97.1952 17.2325C97.1568 16.8885 97.1864 16.5404 97.2822 16.2079C97.3781 15.8754 97.5384 15.5652 97.7538 15.295C97.961 15.0406 98.2197 14.8333 98.5127 14.6868C98.8058 14.5404 99.1265 14.4581 99.4536 14.4454C99.7593 14.4081 100.069 14.4397 100.361 14.5377C100.652 14.6383 100.918 14.799 101.142 15.0094C101.381 15.2331 101.576 15.5002 101.716 15.7965C101.875 16.141 101.989 16.5045 102.055 16.8783C102.066 16.9743 102.147 17.4034 102.297 18.1655C103.71 16.3503 104.789 15.1572 105.534 14.5863C106.677 13.6737 108.079 13.1488 109.538 13.087C110.961 13.0428 112.358 13.4759 113.509 14.318Z" fill="#207DF7"/>
<path d="M121.798 32.5718C121.923 32.8293 121.992 33.1108 121.999 33.3972C122.006 33.6835 121.952 33.9681 121.84 34.2317C121.613 34.7432 121.205 35.1524 120.696 35.3806C120.451 35.5055 120.185 35.5794 119.911 35.5976C119.638 35.6159 119.364 35.5782 119.105 35.4869C118.561 35.2836 118.114 34.8806 117.855 34.3594C117.584 33.89 117.371 33.3899 117.219 32.8698C117.19 32.8131 117.063 32.2174 116.837 31.0826C116.753 31.1675 116.562 31.3803 116.265 31.7209C115.968 32.0611 115.77 32.2881 115.671 32.4018C115.572 32.5156 115.41 32.6858 115.184 32.9125C114.957 33.1399 114.752 33.3313 114.569 33.4867C114.385 33.6431 114.194 33.7921 113.996 33.9337C112.442 35.0116 110.972 35.2883 109.587 34.7637C108.201 34.2387 107.268 33.0683 106.788 31.2525C106.534 29.9959 106.534 28.7007 106.788 27.4441C107.047 26.1408 107.551 24.8989 108.272 23.7843C108.891 22.7472 109.768 21.8893 110.816 21.2948C112.343 20.4722 113.728 20.3871 114.971 21.0395C115.168 21.1591 115.383 21.2454 115.607 21.2948C115.678 21.3123 115.752 21.3117 115.822 21.2931C115.893 21.2745 115.957 21.2386 116.01 21.1885C116.107 21.0932 116.179 20.9765 116.223 20.8478C116.276 20.6602 116.312 20.4679 116.328 20.2735C116.724 18.3443 116.978 15.6774 117.092 12.273C117.119 10.6557 117.134 9.83295 117.134 9.80476C117.162 9.21871 117.395 8.66125 117.791 8.23019C117.98 8.03374 118.208 7.8792 118.46 7.77654C118.712 7.67387 118.982 7.62537 119.254 7.63416C119.811 7.62037 120.352 7.82673 120.759 8.20885C121.175 8.6051 121.425 9.14507 121.459 9.71938C121.486 10.6278 121.472 12.1456 121.417 14.2728C121.388 15.1529 121.317 17.0253 121.204 19.8901C121.091 22.7561 121.02 24.9691 120.992 26.5292C120.936 29.1111 121.204 31.1253 121.798 32.5718ZM113.996 27.1248C114.392 26.4159 114.222 25.7917 113.488 25.2521C113.412 25.1728 113.317 25.1143 113.212 25.0822C113.13 25.0541 113.04 25.0541 112.958 25.0822C112.896 25.1077 112.832 25.129 112.767 25.1459C112.69 25.1752 112.623 25.2271 112.576 25.2949C112.505 25.3798 112.449 25.4439 112.406 25.4865C112.344 25.5529 112.288 25.624 112.237 25.6991C112.192 25.7662 112.142 25.8301 112.088 25.8904C111.38 26.8867 110.981 28.0714 110.944 29.2949C110.972 29.3843 110.987 29.4777 110.986 29.5716C110.986 29.6642 110.979 29.7567 110.965 29.8482C110.951 29.9357 110.966 30.0254 111.007 30.1035C111.06 30.1984 111.141 30.2733 111.24 30.3166C111.337 30.3451 111.44 30.3451 111.537 30.3166C111.662 30.2578 111.771 30.1703 111.855 30.0613C111.982 29.9192 112.046 29.8343 112.046 29.8055C112.667 29.267 113.317 28.3734 113.996 27.1248Z" fill="#207DF7"/>
<path d="M50.6298 27.7975C50.4396 27.297 50.0964 26.8698 49.6494 26.5771C48.7318 25.9827 47.846 26.1195 46.992 26.9874C46.8562 27.132 46.6583 27.3736 46.3983 27.7124C46.1386 28.0511 45.9408 28.2929 45.8048 28.4377C45.0304 29.3036 44.1269 29.521 43.0944 29.0899C44.045 28.3375 44.8602 27.4275 45.5049 26.3991C45.8988 25.6993 46.1561 24.9305 46.263 24.134C46.3739 23.4 46.3392 22.6512 46.1609 21.9306C45.9827 21.2101 45.6645 20.532 45.2244 19.9352C44.7959 19.3338 44.2113 18.8618 43.5343 18.5704C42.8529 18.2154 42.0993 18.0222 41.3318 18.0059C40.5642 17.9895 39.8031 18.1503 39.1073 18.476C38.3717 18.7794 37.7065 19.2319 37.1531 19.8052C36.5998 20.3785 36.1702 21.0602 35.8914 21.8077C35.3361 23.2016 35.1885 24.7256 35.4657 26.2007C35.7093 27.6342 36.278 28.9924 37.1277 30.1702C37.9892 31.3334 39.1179 32.2706 40.4177 32.9022C41.7387 33.5776 43.2254 33.8574 44.7004 33.7083C47.0735 33.4972 48.9895 32.0154 50.4483 29.2626C50.5846 29.0471 50.6717 28.8039 50.7031 28.5505C50.7345 28.2972 50.7094 28.04 50.6298 27.7975ZM40.7313 27.2619C40.2196 27.2619 39.7194 27.1096 39.2939 26.8243C38.8684 26.539 38.5368 26.1334 38.341 25.6589C38.1451 25.1844 38.0939 24.6622 38.1937 24.1585C38.2936 23.6548 38.54 23.192 38.9018 22.8289C39.2637 22.4657 39.7247 22.2184 40.2266 22.1182C40.7285 22.018 41.2487 22.0694 41.7215 22.266C42.1943 22.4625 42.5983 22.7953 42.8826 23.2224C43.1669 23.6494 43.3187 24.1515 43.3187 24.6651C43.3187 25.0061 43.2518 25.3438 43.1218 25.6589C42.9917 25.9739 42.8011 26.2602 42.5609 26.5014C42.3206 26.7425 42.0354 26.9338 41.7215 27.0643C41.4076 27.1948 41.0711 27.2619 40.7313 27.2619Z" fill="#207DF7"/>
<path d="M66.1758 19.2558C65.8119 16.9937 62.8022 13.4545 58.7637 14.3793C54.4676 15.363 53.5416 17.429 52.5989 20.2108C52.1486 17.3645 50.5237 16.3252 50.0527 15.9362C49.8261 15.7461 49.5593 15.6105 49.2725 15.5397C48.9858 15.4689 48.6867 15.4647 48.3981 15.5276C47.7671 15.6436 47.1876 15.9068 47.022 16.4685C46.4328 18.4672 48.4692 18.6166 48.5661 19.4354C48.7434 20.7623 48.9836 22.6395 49.2866 25.0668C49.5885 27.4952 49.7872 29.1045 49.8829 29.8947C51.0206 37.586 49.7717 42.1171 51.5712 42.1171C55.0947 42.1171 53.6068 32.3927 53.5532 25.876C55.1681 29.2775 59.5692 30.0189 62.2007 28.2703C65.216 26.2762 66.8162 23.2366 66.1758 19.2558ZM58.6126 24.6651C58.1009 24.6651 57.6007 24.5128 57.1752 24.2275C56.7497 23.9421 56.4181 23.5366 56.2222 23.0621C56.0264 22.5875 55.9752 22.0654 56.075 21.5617C56.1749 21.0579 56.4213 20.5952 56.7831 20.232C57.145 19.8689 57.606 19.6216 58.1079 19.5214C58.6098 19.4212 59.13 19.4726 59.6028 19.6691C60.0756 19.8657 60.4796 20.1985 60.7639 20.6256C61.0482 21.0526 61.2 21.5547 61.2 22.0683C61.2 22.757 60.9274 23.4175 60.4422 23.9045C59.9569 24.3915 59.2988 24.6651 58.6126 24.6651Z" fill="#207DF7"/>
<path d="M51.46 50C48.0837 50 44.5133 48.8325 41.0021 46.5619C39.0582 45.3109 37.2724 43.8283 35.6836 42.1465C35.4337 41.864 35.3052 41.4938 35.3263 41.1167C35.3474 40.7395 35.5163 40.386 35.7961 40.1334C36.0759 39.8808 36.444 39.7495 36.8199 39.7683C37.1958 39.787 37.549 39.9543 37.8025 40.2335C37.9277 40.3715 45.2514 48.3481 53.3316 46.9849C58.9021 46.0446 63.6972 40.9104 67.5833 31.7249C67.731 31.3758 68.0109 31.0998 68.3613 30.9577C68.7118 30.8156 69.1041 30.8191 69.452 30.9673C69.7999 31.1156 70.0749 31.3965 70.2165 31.7482C70.358 32.1 70.3546 32.4937 70.2069 32.8429C65.9122 42.9941 60.3882 48.7019 53.7886 49.8086C53.019 49.9368 52.2402 50.0008 51.46 50Z" fill="#FC9B65"/>
</g>
<defs>
<clipPath id="clip0_978_10400">
<rect width="122" height="50" fill="white"/>
</clipPath>
</defs>
</svg>
