<svg width="128" height="118" viewBox="0 0 128 118" fill="none" xmlns="http://www.w3.org/2000/svg">
<path d="M109.933 2.34796C142.215 9.82928 162.319 42.0634 154.838 74.3447C149.344 98.0509 130.501 115.191 108.093 119.661C94.2231 137.816 70.5453 147.195 46.8427 141.702C14.561 134.221 -5.54356 101.987 1.93777 69.7049C7.43087 46.0023 26.2691 28.8644 48.6723 24.3912C62.5462 6.23665 86.2271 -3.14599 109.933 2.34796ZM76.1614 48.4127L61.5485 45.0261L59.8553 52.3323C49.7674 49.9944 39.6942 56.2771 37.3563 66.365C35.1119 76.0496 40.8121 85.7207 50.197 88.547L51.389 88.8641L66.0019 92.2506L66.645 92.462C68.2772 93.1659 69.224 94.9574 68.8084 96.7504C68.3927 98.5441 66.7546 99.7358 64.979 99.6507L64.3086 99.557L35.083 92.7839L31.6965 107.397L46.3092 110.783L44.616 118.089L59.2288 121.476L60.9221 114.17C71.01 116.508 81.0833 110.225 83.4211 100.137C85.6656 90.4524 79.9647 80.7819 70.5806 77.955L69.3884 77.6379L54.7755 74.2514L54.1325 74.0407C52.5001 73.336 51.5533 71.5453 51.969 69.7515C52.3845 67.9586 54.0226 66.7661 55.7985 66.852L56.4688 66.945L85.6944 73.7181L89.0809 59.1053L74.4682 55.7188L76.1614 48.4127ZM106.547 16.9607C93.5159 13.9407 80.4949 16.914 70.3738 24.0789C71.5625 24.2878 72.7485 24.5254 73.9348 24.8004C106.216 32.2817 126.321 64.5158 118.84 96.7971C118.564 97.9858 118.255 99.1582 117.914 100.313C128.805 94.378 137.205 83.9912 140.225 70.9582C145.836 46.7472 130.758 22.5716 106.547 16.9607Z" fill="white" fill-opacity="0.1"/>
</svg>
